<svg class="lds-gear" width="200px"  height="200px"  xmlns="http://www.w3.org/2000/svg" xmlns:xlink="http://www.w3.org/1999/xlink" viewBox="0 0 100 100" preserveAspectRatio="xMidYMid" style="background: none;"><g transform="translate(50 50)">
<g transform="rotate(246.522)">
<animateTransform attributeName="transform" type="rotate" values="0;360" keyTimes="0;1" dur="4.6s" repeatCount="indefinite"></animateTransform><path d="M37.73261188945181 -4.5 L47.73261188945181 -4.5 L47.73261188945181 4.5 L37.73261188945181 4.5 A38 38 0 0 1 34.92740044740401 14.96919162769593 L34.92740044740401 14.96919162769593 L43.5876544852484 19.969191627695928 L39.0876544852484 27.763420261755872 L30.427400447404015 22.763420261755872 A38 38 0 0 1 22.763420261755886 30.42740044740401 L22.763420261755886 30.42740044740401 L27.763420261755886 39.08765448524839 L19.969191627695935 43.58765448524839 L14.969191627695935 34.92740044740401 A38 38 0 0 1 4.5000000000000036 37.7326118894518 L4.5000000000000036 37.7326118894518 L4.500000000000004 47.7326118894518 L-4.499999999999998 47.73261188945181 L-4.499999999999999 37.73261188945181 A38 38 0 0 1 -14.96919162769592 34.92740044740402 L-14.96919162769592 34.92740044740402 L-19.969191627695917 43.58765448524841 L-27.76342026175586 39.087654485248414 L-22.763420261755865 30.427400447404025 A38 38 0 0 1 -30.427400447404008 22.763420261755886 L-30.427400447404008 22.763420261755886 L-39.08765448524839 27.76342026175589 L-43.587654485248386 19.969191627695956 L-34.927400447404004 14.96919162769595 A38 38 0 0 1 -37.73261188945181 4.499999999999998 L-37.73261188945181 4.499999999999998 L-47.73261188945181 4.499999999999999 L-47.73261188945181 -4.499999999999988 L-37.73261188945181 -4.4999999999999885 A38 38 0 0 1 -34.92740044740401 -14.969191627695926 L-34.92740044740401 -14.969191627695926 L-43.5876544852484 -19.969191627695924 L-39.087654485248414 -27.76342026175586 L-30.427400447404025 -22.763420261755865 A38 38 0 0 1 -22.763420261755904 -30.427400447403997 L-22.763420261755904 -30.427400447403997 L-27.763420261755908 -39.08765448524838 L-19.969191627695942 -43.58765448524839 L-14.969191627695938 -34.92740044740401 A38 38 0 0 1 -4.500000000000017 -37.7326118894518 L-4.500000000000017 -37.7326118894518 L-4.500000000000019 -47.7326118894518 L4.500000000000002 -47.7326118894518 L4.5000000000000036 -37.7326118894518 A38 38 0 0 1 14.969191627695894 -34.92740044740403 L14.969191627695894 -34.92740044740403 L19.969191627695885 -43.58765448524842 L27.763420261755854 -39.087654485248414 L22.76342026175586 -30.427400447404025 A38 38 0 0 1 30.427400447403993 -22.763420261755904 L30.427400447403993 -22.763420261755904 L39.08765448524838 -27.763420261755908 L43.58765448524839 -19.969191627695945 L34.92740044740401 -14.96919162769594 A38 38 0 0 1 37.7326118894518 -4.5000000000000195 M0 -32A32 32 0 1 0 0 32 A32 32 0 1 0 0 -32" fill="#1d3f72"></path></g></g></svg>