<svg class="lds-gear" width="200px"  height="200px"  xmlns="http://www.w3.org/2000/svg" xmlns:xlink="http://www.w3.org/1999/xlink" viewBox="0 0 100 100" preserveAspectRatio="xMidYMid" style="background: none;"><g transform="translate(50 50)">
<g transform="rotate(210.769)">
<animateTransform attributeName="transform" type="rotate" values="0;360" keyTimes="0;1" dur="3.9s" repeatCount="indefinite"></animateTransform><path d="M37.78888725538237 -4 L49.78888725538237 -4 L49.78888725538237 4 L37.78888725538237 4 A38 38 0 0 1 34.72613634390714 15.430342012553428 L34.72613634390714 15.430342012553428 L45.11844118932041 21.430342012553425 L41.11844118932041 28.35854524282894 L30.726136343907143 22.35854524282894 A38 38 0 0 1 22.358545242828942 30.726136343907143 L22.358545242828942 30.726136343907143 L28.358545242828942 41.11844118932041 L21.43034201255343 45.11844118932041 L15.43034201255343 34.72613634390714 A38 38 0 0 1 4.000000000000006 37.78888725538237 L4.000000000000006 37.78888725538237 L4.000000000000007 49.78888725538237 L-4.000000000000001 49.78888725538237 L-4.000000000000002 37.78888725538237 A38 38 0 0 1 -15.43034201255342 34.72613634390715 L-15.43034201255342 34.72613634390715 L-21.430342012553417 45.118441189320414 L-28.35854524282893 41.118441189320414 L-22.358545242828935 30.726136343907147 A38 38 0 0 1 -30.726136343907132 22.358545242828956 L-30.726136343907132 22.358545242828956 L-41.11844118932039 28.35854524282896 L-45.11844118932039 21.430342012553446 L-34.726136343907136 15.43034201255344 A38 38 0 0 1 -37.78888725538237 4.000000000000008 L-37.78888725538237 4.000000000000008 L-49.78888725538237 4.00000000000001 L-49.78888725538237 -3.999999999999998 L-37.78888725538237 -3.999999999999999 A38 38 0 0 1 -34.72613634390715 -15.430342012553417 L-34.72613634390715 -15.430342012553417 L-45.118441189320414 -21.430342012553414 L-41.118441189320414 -28.35854524282893 L-30.726136343907147 -22.358545242828935 A38 38 0 0 1 -22.358545242828942 -30.72613634390714 L-22.358545242828942 -30.72613634390714 L-28.358545242828946 -41.1184411893204 L-21.43034201255346 -45.11844118932039 L-15.430342012553456 -34.72613634390713 A38 38 0 0 1 -3.999999999999994 -37.78888725538237 L-3.999999999999994 -37.78888725538237 L-3.999999999999996 -49.78888725538237 L3.9999999999999774 -49.78888725538237 L3.9999999999999796 -37.78888725538237 A38 38 0 0 1 15.430342012553416 -34.72613634390715 L15.430342012553416 -34.72613634390715 L21.430342012553407 -45.11844118932042 L28.358545242828896 -41.118441189320436 L22.358545242828903 -30.726136343907168 A38 38 0 0 1 30.72613634390714 -22.358545242828942 L30.72613634390714 -22.358545242828942 L41.1184411893204 -28.358545242828946 L45.11844118932039 -21.430342012553467 L34.72613634390713 -15.43034201255346 A38 38 0 0 1 37.78888725538237 -3.999999999999996 M0 -33A33 33 0 1 0 0 33 A33 33 0 1 0 0 -33" fill="#51CACC"></path></g></g></svg>